<?xml version="1.0" standalone="no"?>
<!DOCTYPE svg PUBLIC "-//W3C//DTD SVG 20010904//EN"
 "http://www.w3.org/TR/2001/REC-SVG-20010904/DTD/svg10.dtd">
<svg version="1.0" xmlns="http://www.w3.org/2000/svg"
 width="512.000000pt" height="512.000000pt" viewBox="0 0 512.000000 512.000000"
 preserveAspectRatio="xMidYMid meet">

<g transform="translate(0.000000,512.000000) scale(0.100000,-0.100000)"
fill="#000000" stroke="none">
<path d="M2410 4539 c-446 -30 -886 -227 -1218 -543 -432 -413 -651 -976 -611
-1569 66 -990 857 -1781 1846 -1846 1200 -80 2192 913 2112 2115 -59 896 -721
1643 -1607 1814 -87 17 -360 43 -397 38 -5 0 -62 -4 -125 -9z m294 -635 c13
-13 16 -42 16 -160 l0 -144 24 0 c41 0 198 -49 271 -86 92 -45 185 -118 185
-145 0 -12 -30 -77 -67 -145 -80 -149 -87 -154 -165 -96 -186 137 -404 175
-557 98 -109 -56 -159 -170 -117 -269 33 -79 131 -141 396 -247 195 -78 296
-133 385 -207 114 -95 162 -195 172 -354 16 -245 -116 -466 -341 -573 -39 -19
-97 -40 -128 -47 l-58 -14 0 -142 c0 -115 -3 -144 -16 -157 -20 -21 -231 -23
-257 -3 -14 10 -17 35 -19 156 l-3 143 -92 23 c-117 30 -196 65 -298 130 -98
64 -165 125 -165 152 0 28 166 247 191 251 11 2 50 -20 99 -57 140 -105 272
-154 415 -154 177 1 298 97 300 239 1 109 -82 185 -299 275 -317 132 -430 195
-521 288 -68 70 -102 124 -124 196 -65 208 -16 403 139 556 83 83 193 146 300
173 l55 13 3 149 c2 126 5 151 19 162 26 19 237 17 257 -4z"/>
</g>
</svg>
